<?xml version="1.0" standalone="no"?><!-- Generator: Gravit.io --><svg xmlns="http://www.w3.org/2000/svg" xmlns:xlink="http://www.w3.org/1999/xlink" style="isolation:isolate" viewBox="0 0 655.45 655.466" width="655.45" height="655.466"><defs><clipPath id="_clipPath_ioT0gcNIrfoMkihaRzpI122FeXFRwmNO"><rect width="655.45" height="655.466"/></clipPath></defs><g clip-path="url(#_clipPath_ioT0gcNIrfoMkihaRzpI122FeXFRwmNO)"><path d=" M 394.167 223.624 L 394.167 170.543 C 367.051 160.902 349.921 158.192 341.299 137.384 L 341.299 137.367 C 332.644 116.493 342.941 102.319 355.21 76.485 L 317.682 38.957 C 292.045 51.143 277.723 61.539 256.8 52.868 L 256.783 52.868 C 235.942 44.229 233.215 26.984 223.624 0 L 170.543 0 C 160.984 26.853 158.241 44.212 137.384 52.868 L 137.367 52.868 C 116.493 61.539 102.352 51.258 76.485 38.957 L 38.957 76.485 C 51.192 102.237 61.539 116.46 52.868 137.367 C 44.212 158.241 26.853 160.984 0 170.543 L 0 223.624 C 26.803 233.15 44.212 235.925 52.868 256.783 C 61.572 277.838 50.995 292.357 38.957 317.665 L 76.485 355.21 C 102.138 343.007 116.46 332.627 137.367 341.299 L 137.384 341.299 C 158.241 349.938 160.968 367.232 170.543 394.167 L 223.624 394.167 C 233.182 367.298 235.942 349.987 256.915 341.25 L 256.931 341.25 C 277.658 332.644 291.749 342.909 317.665 355.226 L 355.193 317.682 C 342.974 292.012 332.611 277.723 341.266 256.816 C 349.921 235.942 367.347 233.166 394.167 223.624 Z " fill="rgb(26,130,183)"/><path d=" M 655.178 411.647 L 634.728 362.663 C 605.992 364.213 589.14 368.312 573.167 352.431 L 573.161 352.416 C 557.131 336.488 561.174 319.441 562.542 290.874 L 513.453 270.701 C 494.49 291.824 485.279 306.935 462.63 306.994 L 462.614 307 C 440.053 307.057 430.894 292.194 411.647 270.988 L 362.663 291.438 C 364.188 319.901 368.345 336.977 352.431 353 L 352.416 353.006 C 336.494 369.05 319.484 365.011 290.874 363.625 L 270.701 412.714 C 291.914 431.764 306.941 440.903 306.994 463.537 C 307.049 486.135 292.085 495.354 270.988 514.52 L 291.438 563.503 C 319.842 561.968 336.977 557.822 353 573.735 C 369.144 589.812 364.977 607.284 363.618 635.277 L 412.714 655.466 C 431.686 634.321 440.903 619.225 463.537 619.173 L 463.552 619.167 C 486.128 619.103 495.307 634.012 514.52 655.178 L 563.503 634.728 C 561.973 606.251 557.85 589.214 573.838 573.071 L 573.853 573.064 C 589.664 557.138 606.622 561.181 635.284 562.564 L 655.45 513.459 C 634.285 494.478 619.217 485.285 619.149 462.657 C 619.094 440.06 634.105 430.785 655.178 411.647 Z " fill="rgb(12,68,96)"/><path d=" M 69.558 243.273 L 69.558 153.833 L 108.428 153.833 L 108.428 153.833 Q 122.468 153.833 133.323 159.423 L 133.323 159.423 L 133.323 159.423 Q 144.178 165.013 150.223 175.023 L 150.223 175.023 L 150.223 175.023 Q 156.268 185.033 156.268 197.903 L 156.268 197.903 L 156.268 197.903 Q 156.268 211.423 150.353 221.693 L 150.353 221.693 L 150.353 221.693 Q 144.438 231.963 133.583 237.618 L 133.583 237.618 L 133.583 237.618 Q 122.728 243.273 108.428 243.273 L 108.428 243.273 L 69.558 243.273 L 69.558 243.273 Z  M 98.288 219.873 L 107.128 219.873 L 107.128 219.873 Q 116.878 219.873 122.013 213.698 L 122.013 213.698 L 122.013 213.698 Q 127.148 207.523 127.148 197.643 L 127.148 197.643 L 127.148 197.643 Q 127.148 188.283 122.143 182.758 L 122.143 182.758 L 122.143 182.758 Q 117.138 177.233 107.128 177.233 L 107.128 177.233 L 98.288 177.233 L 98.288 219.873 L 98.288 219.873 Z  M 168.878 243.273 L 168.878 153.833 L 231.668 153.833 L 231.668 173.593 L 200.468 173.593 L 200.468 189.843 L 228.938 189.843 L 228.938 206.223 L 200.468 206.223 L 200.468 223.513 L 231.668 223.513 L 231.668 243.273 L 168.878 243.273 L 168.878 243.273 Z  M 264.558 243.273 L 238.038 153.833 L 267.418 153.833 L 281.198 209.603 L 294.978 153.833 L 325.658 153.833 L 297.708 243.273 L 264.558 243.273 L 264.558 243.273 Z " fill-rule="evenodd" fill="rgb(255,255,255)"/><path d=" M 380.978 510.353 L 380.978 510.353 Q 366.938 510.353 356.083 504.373 L 356.083 504.373 L 356.083 504.373 Q 345.228 498.393 339.183 487.798 L 339.183 487.798 L 339.183 487.798 Q 333.138 477.203 333.138 463.683 L 333.138 463.683 L 333.138 463.683 Q 333.138 450.033 339.183 439.373 L 339.183 439.373 L 339.183 439.373 Q 345.228 428.713 356.083 422.798 L 356.083 422.798 L 356.083 422.798 Q 366.938 416.883 380.978 416.883 L 380.978 416.883 L 380.978 416.883 Q 395.018 416.883 405.873 422.798 L 405.873 422.798 L 405.873 422.798 Q 416.728 428.713 422.773 439.308 L 422.773 439.308 L 422.773 439.308 Q 428.818 449.903 428.818 463.683 L 428.818 463.683 L 428.818 463.683 Q 428.818 477.203 422.773 487.798 L 422.773 487.798 L 422.773 487.798 Q 416.728 498.393 405.808 504.373 L 405.808 504.373 L 405.808 504.373 Q 394.888 510.353 380.978 510.353 L 380.978 510.353 L 380.978 510.353 Z  M 380.978 486.693 L 380.978 486.693 Q 389.168 486.693 394.433 480.323 L 394.433 480.323 L 394.433 480.323 Q 399.698 473.953 399.698 463.553 L 399.698 463.553 L 399.698 463.553 Q 399.698 456.663 397.293 451.268 L 397.293 451.268 L 397.293 451.268 Q 394.888 445.873 390.598 442.818 L 390.598 442.818 L 390.598 442.818 Q 386.308 439.763 380.848 439.763 L 380.848 439.763 L 380.848 439.763 Q 375.518 439.763 371.228 442.818 L 371.228 442.818 L 371.228 442.818 Q 366.938 445.873 364.598 451.268 L 364.598 451.268 L 364.598 451.268 Q 362.258 456.663 362.258 463.553 L 362.258 463.553 L 362.258 463.553 Q 362.258 473.953 367.458 480.323 L 367.458 480.323 L 367.458 480.323 Q 372.658 486.693 380.978 486.693 L 380.978 486.693 L 380.978 486.693 Z  M 441.298 508.273 L 441.298 418.833 L 473.538 418.833 L 473.538 418.833 Q 493.558 418.833 504.543 426.633 L 504.543 426.633 L 504.543 426.633 Q 515.528 434.433 515.528 448.473 L 515.528 448.473 L 515.528 448.473 Q 515.528 457.313 510.133 463.943 L 510.133 463.943 L 510.133 463.943 Q 504.738 470.573 495.443 474.148 L 495.443 474.148 L 495.443 474.148 Q 486.148 477.723 474.838 477.723 L 474.838 477.723 L 469.378 477.723 L 469.378 508.273 L 441.298 508.273 L 441.298 508.273 Z  M 474.968 459.653 L 474.968 459.653 Q 481.858 459.653 485.628 456.793 L 485.628 456.793 L 485.628 456.793 Q 489.398 453.933 489.398 448.473 L 489.398 448.473 L 489.398 448.473 Q 489.398 443.013 485.693 440.283 L 485.693 440.283 L 485.693 440.283 Q 481.988 437.553 474.968 437.553 L 474.968 437.553 L 469.378 437.553 L 469.378 459.393 L 469.378 459.393 Q 471.978 459.653 474.968 459.653 L 474.968 459.653 L 474.968 459.653 Z  M 553.358 510.353 L 553.358 510.353 Q 535.028 510.353 522.418 503.593 L 522.418 503.593 L 528.918 483.443 L 528.918 483.443 Q 542.308 488.253 552.838 488.253 L 552.838 488.253 L 552.838 488.253 Q 558.558 488.253 561.223 486.888 L 561.223 486.888 L 561.223 486.888 Q 563.888 485.523 563.888 482.793 L 563.888 482.793 L 563.888 482.793 Q 563.888 480.973 562.458 479.608 L 562.458 479.608 L 562.458 479.608 Q 561.028 478.243 556.738 476.553 L 556.738 476.553 L 556.738 476.553 Q 552.448 474.863 543.868 472.393 L 543.868 472.393 L 543.868 472.393 Q 533.338 469.273 527.488 462.188 L 527.488 462.188 L 527.488 462.188 Q 521.638 455.103 521.638 445.873 L 521.638 445.873 L 521.638 445.873 Q 521.638 431.573 531.063 424.228 L 531.063 424.228 L 531.063 424.228 Q 540.488 416.883 556.478 416.883 L 556.478 416.883 L 556.478 416.883 Q 564.798 416.883 572.858 418.638 L 572.858 418.638 L 572.858 418.638 Q 580.918 420.393 587.158 423.773 L 587.158 423.773 L 580.138 443.403 L 580.138 443.403 Q 572.858 440.933 567.463 439.828 L 567.463 439.828 L 567.463 439.828 Q 562.068 438.723 556.998 438.723 L 556.998 438.723 L 556.998 438.723 Q 548.418 438.723 548.418 443.403 L 548.418 443.403 L 548.418 443.403 Q 548.418 445.743 551.213 447.368 L 551.213 447.368 L 551.213 447.368 Q 554.008 448.993 562.718 451.463 L 562.718 451.463 L 562.718 451.463 Q 576.368 455.103 583.388 462.578 L 583.388 462.578 L 583.388 462.578 Q 590.408 470.053 590.408 480.453 L 590.408 480.453 L 590.408 480.453 Q 590.408 494.883 581.048 502.618 L 581.048 502.618 L 581.048 502.618 Q 571.688 510.353 553.358 510.353 L 553.358 510.353 L 553.358 510.353 Z " fill-rule="evenodd" fill="rgb(255,255,255)"/></g></svg>