<?xml version="1.0" standalone="no"?><!-- Generator: Gravit.io --><svg xmlns="http://www.w3.org/2000/svg" xmlns:xlink="http://www.w3.org/1999/xlink" style="isolation:isolate" viewBox="0 0 256 283" width="256" height="283"><defs><clipPath id="_clipPath_7BGpuKtGUjO8qijdJnhzn9vof5928kB0"><rect width="256" height="283"/></clipPath></defs><g clip-path="url(#_clipPath_7BGpuKtGUjO8qijdJnhzn9vof5928kB0)"><path d=" M 239.973 139.203 C 239.973 124.669 228.191 112.887 213.657 112.887 C 212.722 112.887 211.8 112.937 210.891 113.032 L 247.036 6.427 L 93.432 6.427 L 129.526 112.94 C 128.997 112.908 128.465 112.887 127.927 112.887 C 113.393 112.887 101.611 124.669 101.611 139.203 C 101.611 150.951 109.31 160.897 119.937 164.281 C 114.324 174.003 107.262 182.759 99.244 190.323 C 88.341 200.609 75.863 208.408 62.368 213.214 C 46.3 204.96 38.712 186.602 45.559 170.507 C 46.332 168.69 47.121 166.847 47.876 165.013 C 59.516 162.296 68.19 151.86 68.19 139.392 C 68.19 124.858 56.408 113.076 41.874 113.076 C 27.339 113.076 15.557 124.858 15.557 139.392 C 15.557 148.305 19.992 156.176 26.77 160.937 C 20.256 175.768 10.682 191.288 7.699 209.276 C 4.124 230.835 7.688 253.719 26.333 266.642 C 69.757 296.738 116.893 247.985 166.592 235.729 C 184.603 231.287 204.374 232.003 220.243 222.812 C 232.16 215.91 240.016 204.472 242.246 191.63 C 244.448 178.944 241.237 166.313 233.853 156.071 C 237.672 151.503 239.973 145.623 239.973 139.203 L 239.973 139.203 L 239.973 139.203 Z  M 154.241 139.296 C 154.241 139.265 154.244 139.234 154.244 139.203 C 154.244 129.659 149.162 121.301 141.558 116.688 L 170.286 58.597 L 199.064 117.304 C 191.997 122.022 187.34 130.068 187.34 139.203 C 187.34 139.395 187.351 139.584 187.355 139.775 L 154.241 139.296 L 154.241 139.296 L 154.241 139.296 Z " fill="rgb(198,61,20)"/><path d=" M 246.399 139.203 C 246.399 123.218 234.882 109.88 219.711 107.031 L 256 0 L 84.466 0 L 120.81 107.248 C 106.167 110.507 95.183 123.593 95.183 139.203 C 95.183 150.926 101.378 161.223 110.663 167.009 C 106.197 173.662 100.901 179.923 94.832 185.648 C 85.208 194.728 74.485 201.614 62.925 206.144 C 51.282 198.83 46.36 185.038 51.472 173.022 L 51.872 172.082 C 52.122 171.494 52.373 170.904 52.623 170.314 C 65.411 165.855 74.616 153.682 74.616 139.392 C 74.616 121.337 59.927 106.649 41.872 106.649 C 23.817 106.649 9.129 121.337 9.129 139.392 C 9.129 148.505 12.874 156.757 18.902 162.699 C 17.809 165.029 16.66 167.397 15.479 169.823 C 9.967 181.144 3.72 193.976 1.357 208.225 C -3.336 236.524 4.233 259.146 22.67 271.924 C 33.858 279.678 45.219 282.728 56.652 282.727 C 78.181 282.726 99.958 271.911 121.258 261.331 C 136.599 253.712 152.461 245.833 168.13 241.969 C 173.96 240.531 179.959 239.666 186.31 238.75 C 198.904 236.933 211.928 235.055 223.464 228.374 C 236.835 220.629 245.989 207.637 248.577 192.73 C 250.799 179.933 248.124 167.117 241.602 156.247 C 244.643 151.279 246.399 145.443 246.399 139.203 L 246.399 139.203 Z " fill="rgb(153,66,79)"/><path d=" M 233.545 139.203 C 233.545 150.17 224.623 159.093 213.655 159.093 C 202.689 159.093 193.766 150.17 193.766 139.203 C 193.766 128.236 202.689 119.314 213.655 119.314 C 224.623 119.314 233.545 128.236 233.545 139.203 L 233.545 139.203 Z " fill="rgb(255,255,255)"/><path d=" M 238.069 12.854 L 206.024 107.367 C 204.635 107.7 203.281 108.12 201.966 108.625 L 170.31 44.047 L 138.562 108.243 C 137.19 107.77 135.778 107.381 134.33 107.093 L 102.395 12.854 L 238.069 12.854 L 238.069 12.854 Z " fill="rgb(255,255,255)"/><path d=" M 127.926 119.314 C 138.893 119.314 147.815 128.236 147.815 139.203 C 147.815 150.17 138.893 159.093 127.926 159.093 C 116.96 159.093 108.037 150.17 108.037 139.203 C 108.037 128.236 116.96 119.314 127.926 119.314 L 127.926 119.314 Z " fill="rgb(255,255,255)"/><path d=" M 41.872 119.503 C 52.84 119.503 61.762 128.425 61.762 139.392 C 61.762 150.359 52.84 159.282 41.872 159.282 C 30.906 159.282 21.983 150.359 21.983 139.392 C 21.983 128.425 30.906 119.503 41.872 119.503 L 41.872 119.503 Z " fill="rgb(255,255,255)"/><path d=" M 235.912 190.531 C 233.977 201.679 227.091 211.418 217.021 217.25 C 207.634 222.687 196.385 224.31 184.475 226.027 C 178.095 226.947 171.497 227.899 165.052 229.489 C 148.01 233.691 131.503 241.89 115.54 249.819 C 83.595 265.686 56.006 279.388 29.993 261.359 C 10.938 248.153 11.818 223.718 14.038 210.328 C 16.095 197.923 21.657 186.498 27.036 175.449 C 27.967 173.537 28.871 171.664 29.758 169.803 C 32.426 170.87 35.263 171.597 38.22 171.927 C 32.745 189.998 41.356 209.646 59.429 218.931 L 61.902 220.202 L 64.522 219.269 C 78.81 214.181 91.975 206.015 103.653 194.998 C 111.202 187.877 117.689 179.998 123.023 171.579 C 124.623 171.82 126.26 171.947 127.926 171.947 C 145.981 171.947 160.67 157.259 160.67 139.203 C 160.67 129.493 156.417 120.761 149.681 114.759 L 170.259 73.147 L 191.046 115.552 C 184.809 121.518 180.912 129.911 180.912 139.203 C 180.912 157.259 195.6 171.947 213.655 171.947 C 220.592 171.947 227.027 169.773 232.327 166.079 C 236.007 173.612 237.378 182.088 235.912 190.531 L 235.912 190.531 Z " fill="rgb(255,255,255)"/></g></svg>