<?xml version="1.0" standalone="no"?><!-- Generator: Gravit.io --><svg xmlns="http://www.w3.org/2000/svg" xmlns:xlink="http://www.w3.org/1999/xlink" style="isolation:isolate" viewBox="0 0 111.6 109.3" width="111.6" height="109.3"><defs><clipPath id="_clipPath_NQZS6pqJfbkfLzGzy8UnoL1cDDGJhkEG"><rect width="111.6" height="109.3"/></clipPath></defs><g clip-path="url(#_clipPath_NQZS6pqJfbkfLzGzy8UnoL1cDDGJhkEG)"><path d=" M 55.689 8.464 C 62.802 8.464 68.516 14.178 68.516 21.291 C 68.516 28.404 62.802 34.118 55.689 34.118 C 48.576 34.118 42.862 28.404 42.862 21.291 C 42.862 14.178 48.576 8.464 55.689 8.464 Z  M 55.689 3.8 C 46.011 3.8 38.198 11.613 38.198 21.291 C 38.198 30.97 46.011 38.782 55.689 38.782 C 65.368 38.782 73.18 30.97 73.18 21.291 C 73.18 11.613 65.368 3.8 55.689 3.8 L 55.689 3.8 Z " fill="rgb(0,0,0)"/><path d=" M 92.771 68.867 C 99.884 68.867 105.598 74.581 105.598 81.694 C 105.598 88.807 99.884 94.521 92.771 94.521 C 85.658 94.521 79.944 88.807 79.944 81.694 C 79.944 74.581 85.658 68.867 92.771 68.867 Z  M 92.771 64.203 C 83.092 64.203 75.279 72.016 75.279 81.694 C 75.279 91.373 83.092 99.185 92.771 99.185 C 102.449 99.185 110.262 91.373 110.262 81.694 C 110.262 72.016 102.449 64.203 92.771 64.203 L 92.771 64.203 Z " fill="rgb(0,0,0)"/><path d=" M 18.491 68.867 C 25.604 68.867 31.318 74.581 31.318 81.694 C 31.318 88.807 25.604 94.521 18.491 94.521 C 11.378 94.521 5.664 88.807 5.664 81.694 C 5.664 74.581 11.378 68.867 18.491 68.867 Z  M 18.491 64.203 C 8.813 64.203 1 72.016 1 81.694 C 1 91.373 8.813 99.185 18.491 99.185 C 28.17 99.185 35.982 91.373 35.982 81.694 C 35.982 72.016 28.053 64.203 18.491 64.203 L 18.491 64.203 Z " fill="rgb(0,0,0)"/><path d=" M 14.293 67.235 C 14.06 65.486 13.944 63.62 13.944 61.754 C 13.944 43.913 25.021 28.754 40.763 22.691" fill="none" vector-effect="non-scaling-stroke" stroke-width="4" stroke="rgb(0,0,0)" stroke-linejoin="miter" stroke-linecap="butt" stroke-miterlimit="10"/><path d=" M 83.209 93.122 C 75.862 99.535 66.184 103.5 55.689 103.5 C 45.195 103.5 35.516 99.535 28.17 93.122" fill="none" vector-effect="non-scaling-stroke" stroke-width="4" stroke="rgb(0,0,0)" stroke-linejoin="miter" stroke-linecap="butt" stroke-miterlimit="10"/><path d=" M 70.615 22.691 C 86.241 28.754 97.435 43.913 97.435 61.754 C 97.435 63.62 97.318 65.369 97.085 67.118" fill="none" vector-effect="non-scaling-stroke" stroke-width="4" stroke="rgb(0,0,0)" stroke-linejoin="miter" stroke-linecap="butt" stroke-miterlimit="10"/></g></svg>