<?xml version="1.0" standalone="no"?><!-- Generator: Gravit.io --><svg xmlns="http://www.w3.org/2000/svg" xmlns:xlink="http://www.w3.org/1999/xlink" style="isolation:isolate" viewBox="0 0 292.498 179.522" width="292.498" height="179.522"><defs><clipPath id="_clipPath_MuomusoJiKTvyRxDZs2o6GkYiqCZkt6h"><rect width="292.498" height="179.522"/></clipPath></defs><g clip-path="url(#_clipPath_MuomusoJiKTvyRxDZs2o6GkYiqCZkt6h)"><path d=" M 9.028 179.522 L 110.912 179.522 C 110.912 179.522 91.438 90.664 155.921 54.682 C 169.979 47.847 214.73 22.311 287.984 76.478 C 290.305 74.543 292.498 72.995 292.498 72.995 C 292.498 72.995 225.435 6.061 150.763 13.542 C 113.233 16.895 67.063 51.071 39.98 96.21 C 12.897 141.348 9.028 179.522 9.028 179.522 Z  M 221.308 20.764 L 221.824 12.123 C 220.663 11.478 217.439 9.93 209.314 7.609 L 208.798 16.121 C 213.054 17.54 217.181 19.087 221.308 20.764 Z  M 209.056 48.105 L 208.54 56.23 C 212.796 56.359 217.052 56.875 221.308 57.777 L 221.824 49.781 C 217.439 48.879 213.183 48.363 209.056 48.105 Z  M 161.338 7.867 L 162.628 7.867 L 160.048 0 C 156.05 0 151.923 0.258 147.668 0.774 L 150.118 8.383 C 153.858 7.996 157.598 7.867 161.338 7.867 Z  M 167.528 55.327 L 170.495 64.226 C 174.235 62.42 177.975 60.873 181.715 59.712 L 178.878 51.2 C 174.493 52.49 170.753 53.908 167.528 55.327 Z  M 108.977 21.409 L 103.174 12.51 C 99.95 14.186 96.596 15.992 93.114 18.055 L 99.047 27.083 C 102.4 25.02 105.624 23.085 108.977 21.409 Z  M 135.416 79.444 L 141.606 88.729 C 143.798 85.505 146.378 82.539 149.215 79.573 L 143.412 70.803 C 140.445 73.511 137.737 76.478 135.416 79.444 Z  M 116.715 120.971 L 127.162 129.225 C 127.678 124.195 128.58 119.166 129.87 114.136 L 120.584 106.785 C 118.908 111.557 117.747 116.328 116.715 120.971 Z  M 60.228 59.712 L 51.071 51.716 C 47.718 54.94 44.494 58.164 41.527 61.388 L 51.458 69.9 C 54.166 66.418 57.132 62.936 60.228 59.712 Z  M 21.28 117.36 L 6.448 111.944 C 3.998 117.489 1.29 123.938 0 127.42 L 14.831 132.836 C 16.508 128.451 19.216 122.132 21.28 117.36 Z  M 114.781 153.729 C 115.039 160.564 115.684 166.11 116.328 169.979 L 131.805 175.524 C 130.644 170.495 129.483 164.82 128.709 158.759 L 114.781 153.729 L 114.781 153.729 Z " fill="rgb(204,0,0)"/></g></svg>