<?xml version="1.0" standalone="no"?><!-- Generator: Gravit.io --><svg xmlns="http://www.w3.org/2000/svg" xmlns:xlink="http://www.w3.org/1999/xlink" style="isolation:isolate" viewBox="0 0 446.6 446.6" width="446.6" height="446.6"><defs><clipPath id="_clipPath_7KUpXq3cW12EXMAz47wcOI5YedMvWfTg"><rect width="446.6" height="446.6"/></clipPath></defs><g clip-path="url(#_clipPath_7KUpXq3cW12EXMAz47wcOI5YedMvWfTg)"><rect x="126" y="54" width="192" height="336" transform="matrix(1,0,0,1,0,0)" fill="rgb(83,193,222)"/><g id="Group"><g id="Group"><path d=" M 129.437 446.6 L 317.16 446.6 C 333.866 446.6 347.466 432.996 347.466 416.29 L 347.466 30.303 C 347.465 13.593 333.866 0 317.16 0 L 129.437 0 C 112.73 0 99.134 13.593 99.134 30.303 L 99.134 416.29 C 99.134 432.996 112.73 446.6 129.437 446.6 Z  M 110.984 30.303 C 110.984 20.137 119.271 11.849 129.437 11.849 L 317.16 11.849 C 327.342 11.849 335.613 20.137 335.613 30.303 L 335.613 416.29 C 335.613 426.471 327.342 434.753 317.16 434.753 L 129.437 434.753 C 119.271 434.753 110.984 426.471 110.984 416.29 L 110.984 30.303 L 110.984 30.303 L 110.984 30.303 Z " fill="rgb(83,193,222)"/><path d=" M 125.677 394.068 L 320.927 394.068 C 322.563 394.068 323.888 392.738 323.888 391.102 L 323.888 52.242 C 323.888 50.606 322.563 49.279 320.927 49.279 L 125.677 49.279 C 124.042 49.279 122.714 50.607 122.714 52.242 L 122.714 391.102 C 122.714 392.738 124.042 394.068 125.677 394.068 Z  M 136.541 55.202 L 310.066 55.202 C 314.422 55.202 317.962 58.742 317.962 63.103 L 317.962 380.241 C 317.962 384.602 314.423 388.142 310.066 388.142 L 136.541 388.142 C 132.179 388.142 128.64 384.602 128.64 380.241 L 128.64 63.104 C 128.64 58.742 132.171 55.202 136.541 55.202 Z " fill="rgb(83,193,222)"/></g></g><g id="Group"><path d=" M 281.081 199.921 C 279.165 199.264 277.232 198.655 275.285 198.095 C 275.608 196.783 275.907 195.465 276.181 194.142 C 280.568 172.844 277.7 155.687 267.903 150.039 C 258.511 144.622 243.15 150.27 227.636 163.77 C 226.107 165.104 224.612 166.476 223.153 167.885 C 222.175 166.948 221.181 166.029 220.169 165.129 C 203.91 150.692 187.612 144.609 177.827 150.274 C 168.443 155.706 165.664 171.836 169.614 192.02 C 170.007 194.018 170.45 196.007 170.944 197.983 C 168.638 198.638 166.411 199.336 164.281 200.079 C 145.219 206.724 133.045 217.141 133.045 227.944 C 133.045 239.103 146.113 250.295 165.968 257.081 C 167.578 257.629 169.202 258.136 170.837 258.603 C 170.306 260.732 169.834 262.875 169.422 265.031 C 165.657 284.864 168.598 300.612 177.956 306.01 C 187.623 311.584 203.846 305.855 219.644 292.046 C 220.893 290.954 222.146 289.796 223.401 288.583 C 224.982 290.108 226.605 291.589 228.268 293.023 C 243.571 306.191 258.683 311.508 268.034 306.095 C 277.692 300.505 280.83 283.587 276.755 263.004 C 276.444 261.432 276.081 259.827 275.675 258.192 C 276.814 257.855 277.932 257.508 279.023 257.146 C 299.664 250.308 313.093 239.252 313.093 227.944 C 313.093 217.102 300.527 206.615 281.081 199.921 L 281.081 199.921 Z " fill="rgb(255,255,255)"/><path d=" M 276.604 249.846 C 275.62 250.172 274.61 250.486 273.58 250.791 C 271.301 243.578 268.225 235.907 264.463 227.982 C 268.054 220.245 271.01 212.673 273.225 205.505 C 275.067 206.039 276.855 206.601 278.578 207.195 C 295.24 212.929 305.402 221.41 305.402 227.944 C 305.402 234.904 294.426 243.94 276.605 249.846 L 276.604 249.846 Z  M 269.209 264.499 C 271.011 273.6 271.268 281.829 270.075 288.262 C 269.002 294.042 266.846 297.895 264.18 299.439 C 258.506 302.723 246.371 298.454 233.285 287.193 C 231.785 285.902 230.273 284.524 228.758 283.065 C 233.831 277.516 238.901 271.065 243.85 263.902 C 252.554 263.13 260.777 261.867 268.235 260.143 C 268.601 261.625 268.928 263.078 269.209 264.499 L 269.209 264.499 Z  M 194.427 298.871 C 188.883 300.829 184.468 300.885 181.8 299.346 C 176.12 296.071 173.76 283.426 176.98 266.465 C 177.362 264.461 177.801 262.467 178.294 260.487 C 185.669 262.118 193.833 263.292 202.558 264 C 207.539 271.009 212.756 277.453 218.013 283.095 C 216.896 284.176 215.752 285.229 214.583 286.254 C 207.597 292.361 200.597 296.692 194.428 298.871 L 194.427 298.871 Z  M 168.456 249.803 C 159.676 246.802 152.426 242.902 147.456 238.647 C 142.991 234.822 140.736 231.025 140.736 227.944 C 140.736 221.388 150.51 213.026 166.813 207.342 C 168.859 206.632 170.926 205.981 173.01 205.392 C 175.263 212.721 178.219 220.383 181.785 228.131 C 178.172 235.995 175.175 243.779 172.901 251.194 C 171.408 250.767 169.926 250.303 168.456 249.803 L 168.456 249.803 Z  M 177.162 190.542 C 173.778 173.249 176.025 160.204 181.68 156.93 C 187.704 153.444 201.023 158.416 215.062 170.881 C 215.959 171.677 216.86 172.512 217.763 173.375 C 212.533 178.992 207.364 185.386 202.426 192.355 C 193.958 193.14 185.851 194.401 178.4 196.089 C 177.94 194.251 177.528 192.401 177.162 190.542 L 177.162 190.542 Z  M 254.827 209.72 C 253.067 206.679 251.241 203.677 249.352 200.715 C 255.097 201.441 260.601 202.405 265.769 203.585 C 264.217 208.558 262.283 213.758 260.006 219.089 C 258.342 215.932 256.615 212.808 254.827 209.72 L 254.827 209.72 Z  M 223.155 178.871 C 226.703 182.714 230.256 187.006 233.751 191.662 C 226.661 191.327 219.56 191.325 212.47 191.657 C 215.968 187.044 219.552 182.759 223.155 178.871 Z  M 191.28 209.772 C 189.514 212.836 187.82 215.94 186.198 219.083 C 183.958 213.771 182.042 208.548 180.477 203.504 C 185.614 202.354 191.092 201.414 196.8 200.701 C 194.889 203.681 193.049 206.706 191.28 209.772 L 191.28 209.772 Z  M 196.964 255.736 C 191.068 255.078 185.506 254.186 180.371 253.068 C 181.961 247.935 183.919 242.599 186.207 237.173 C 187.835 240.318 189.537 243.424 191.311 246.489 C 193.122 249.616 195.007 252.699 196.964 255.736 L 196.964 255.736 Z  M 223.368 277.56 C 219.722 273.626 216.086 269.276 212.535 264.596 C 215.982 264.731 219.497 264.8 223.069 264.8 C 226.739 264.8 230.367 264.718 233.938 264.558 C 230.432 269.323 226.891 273.68 223.368 277.56 Z  M 260.079 236.896 C 262.486 242.382 264.515 247.689 266.126 252.735 C 260.905 253.926 255.269 254.886 249.33 255.598 C 251.233 252.581 253.076 249.526 254.858 246.436 C 256.669 243.295 258.41 240.115 260.079 236.896 L 260.079 236.896 Z  M 248.195 242.594 C 245.467 247.332 242.587 251.98 239.557 256.53 C 234.215 256.912 228.695 257.109 223.069 257.109 C 217.467 257.109 212.016 256.934 206.767 256.594 C 203.659 252.054 200.724 247.398 197.968 242.636 C 195.225 237.899 192.663 233.06 190.287 228.129 C 192.657 223.196 195.211 218.354 197.945 213.614 L 197.945 213.615 C 200.678 208.874 203.59 204.238 206.675 199.717 C 212.03 199.312 217.52 199.1 223.07 199.1 C 228.644 199.1 234.142 199.314 239.495 199.722 C 242.549 204.235 245.442 208.855 248.17 213.573 C 250.913 218.303 253.502 223.121 255.932 228.02 C 253.527 232.968 250.946 237.829 248.195 242.594 L 248.195 242.594 Z  M 264.062 156.702 C 270.091 160.179 272.436 174.201 268.648 192.589 C 268.399 193.787 268.129 194.981 267.838 196.169 C 260.369 194.445 252.257 193.162 243.764 192.366 C 238.817 185.321 233.691 178.915 228.545 173.371 C 229.893 172.071 231.274 170.804 232.685 169.573 C 245.978 158.005 258.401 153.437 264.062 156.702 L 264.062 156.702 Z " fill="rgb(83,193,222)"/><path d=" M 223.069 211.866 C 231.949 211.866 239.147 219.065 239.147 227.944 C 239.147 236.824 231.949 244.022 223.069 244.022 C 214.19 244.022 206.991 236.824 206.991 227.944 C 206.991 219.065 214.19 211.866 223.069 211.866" fill="rgb(255,255,255)"/></g></g></svg>