<?xml version="1.0" standalone="no"?><!-- Generator: Gravit.io --><svg xmlns="http://www.w3.org/2000/svg" xmlns:xlink="http://www.w3.org/1999/xlink" style="isolation:isolate" viewBox="0 0 111.6 109.3" width="111.6" height="109.3"><defs><clipPath id="_clipPath_HxK8qQGuF6nCH0s3K8VGNtyxV0ATBhGm"><rect width="111.6" height="109.3"/></clipPath></defs><g clip-path="url(#_clipPath_HxK8qQGuF6nCH0s3K8VGNtyxV0ATBhGm)"><path d=" M 20.583 57.667 C 20.583 38.488 36.154 22.917 55.333 22.917 C 74.512 22.917 90.083 38.488 90.083 57.667 C 90.083 76.846 74.512 92.417 55.333 92.417 C 36.154 92.417 20.583 76.846 20.583 57.667 Z " fill="rgb(85,49,49)"/><path d=" M 47 8.75 C 47 3.921 50.921 0 55.75 0 C 60.579 0 64.5 3.921 64.5 8.75 C 64.5 13.579 60.579 17.5 55.75 17.5 C 50.921 17.5 47 13.579 47 8.75 Z " fill="rgb(202,105,105)"/><path d=" M 82.5 90.5 C 82.5 85.671 86.421 81.75 91.25 81.75 C 96.079 81.75 100 85.671 100 90.5 C 100 95.329 96.079 99.25 91.25 99.25 C 86.421 99.25 82.5 95.329 82.5 90.5 Z " fill="rgb(202,105,105)"/><path d=" M 10 90.5 C 10 85.671 13.921 81.75 18.75 81.75 C 23.579 81.75 27.5 85.671 27.5 90.5 C 27.5 95.329 23.579 99.25 18.75 99.25 C 13.921 99.25 10 95.329 10 90.5 Z " fill="rgb(202,105,105)"/><path d=" M 34.32 68.59 L 34.32 51.85 L 28.86 51.85 L 28.86 48.19 L 43.86 48.19 L 43.86 51.85 L 38.46 51.85 L 38.46 68.59 L 34.32 68.59 L 34.32 68.59 Z  M 53.34 48.19 L 53.34 48.19 Q 56.82 48.19 58.68 49.165 L 58.68 49.165 L 58.68 49.165 Q 60.54 50.14 61.275 52.24 L 61.275 52.24 L 61.275 52.24 Q 62.01 54.34 62.01 58.06 L 62.01 58.06 L 62.01 58.06 Q 62.01 61.93 61.29 64.18 L 61.29 64.18 L 61.29 64.18 Q 60.57 66.43 58.695 67.51 L 58.695 67.51 L 58.695 67.51 Q 56.82 68.59 53.34 68.59 L 53.34 68.59 L 46.47 68.59 L 46.47 48.19 L 53.34 48.19 L 53.34 48.19 Z  M 53.34 64.99 L 53.34 64.99 Q 55.29 64.99 56.235 64.21 L 56.235 64.21 L 56.235 64.21 Q 57.18 63.43 57.465 61.975 L 57.465 61.975 L 57.465 61.975 Q 57.75 60.52 57.75 57.82 L 57.75 57.82 L 57.75 57.82 Q 57.75 55.42 57.45 54.19 L 57.45 54.19 L 57.45 54.19 Q 57.15 52.96 56.22 52.375 L 56.22 52.375 L 56.22 52.375 Q 55.29 51.79 53.34 51.79 L 53.34 51.79 L 50.61 51.79 L 50.61 64.99 L 53.34 64.99 L 53.34 64.99 Z  M 72.48 48.19 L 72.48 48.19 Q 75.96 48.19 77.82 49.165 L 77.82 49.165 L 77.82 49.165 Q 79.68 50.14 80.415 52.24 L 80.415 52.24 L 80.415 52.24 Q 81.15 54.34 81.15 58.06 L 81.15 58.06 L 81.15 58.06 Q 81.15 61.93 80.43 64.18 L 80.43 64.18 L 80.43 64.18 Q 79.71 66.43 77.835 67.51 L 77.835 67.51 L 77.835 67.51 Q 75.96 68.59 72.48 68.59 L 72.48 68.59 L 65.61 68.59 L 65.61 48.19 L 72.48 48.19 L 72.48 48.19 Z  M 72.48 64.99 L 72.48 64.99 Q 74.43 64.99 75.375 64.21 L 75.375 64.21 L 75.375 64.21 Q 76.32 63.43 76.605 61.975 L 76.605 61.975 L 76.605 61.975 Q 76.89 60.52 76.89 57.82 L 76.89 57.82 L 76.89 57.82 Q 76.89 55.42 76.59 54.19 L 76.59 54.19 L 76.59 54.19 Q 76.29 52.96 75.36 52.375 L 75.36 52.375 L 75.36 52.375 Q 74.43 51.79 72.48 51.79 L 72.48 51.79 L 69.75 51.79 L 69.75 64.99 L 72.48 64.99 L 72.48 64.99 Z " fill-rule="evenodd" fill="rgb(255,255,255)"/><path d=" M 14.41 79.68 L 15.13 81 L 12.49 82.43 L 11.78 81.11 C 7.86 73.92 5.82 65.85 5.83 57.67 C 5.83 46.44 9.65 35.54 16.67 26.78 C 23.55 18.16 33.12 12.09 43.84 9.53 L 45.3 9.18 L 46 12.1 L 44.54 12.44 C 34.46 14.85 25.47 20.55 19.01 28.65 C 12.42 36.88 8.83 47.12 8.83 57.67 C 8.82 65.36 10.74 72.92 14.41 79.68 Z " fill="rgb(202,105,105)"/><path d=" M 81.87 95.84 L 83.1 94.98 L 84.82 97.44 L 83.59 98.3 C 75.3 104.08 65.44 107.17 55.33 107.17 C 45.15 107.18 35.21 104.02 26.89 98.14 L 25.66 97.28 L 27.39 94.83 L 28.62 95.69 C 36.43 101.21 45.77 104.18 55.33 104.17 C 64.82 104.17 74.09 101.26 81.87 95.84 Z " fill="rgb(202,105,105)"/><path d=" M 66.91 12.6 L 65.46 12.23 L 66.21 9.32 L 67.67 9.7 C 78.2 12.42 87.54 18.54 94.26 27.1 C 101.11 35.81 104.83 46.58 104.83 57.67 C 104.84 65.37 103.04 72.96 99.58 79.84 L 98.91 81.18 L 96.23 79.83 L 96.9 78.49 C 100.15 72.03 101.84 64.9 101.83 57.67 C 101.84 47.25 98.34 37.14 91.9 28.95 C 85.59 20.91 76.81 15.16 66.91 12.6 Z " fill="rgb(202,105,105)"/></g></svg>